<svg width="30" height="30" viewBox="0 0 30 30" fill="none" xmlns="http://www.w3.org/2000/svg">
<path d="M25.825 8.725C24.7075 6.80875 23.1913 5.29125 21.2738 4.175C19.3575 3.05875 17.2663 2.5 15 2.5C12.7338 2.5 10.6425 3.05875 8.725 4.175C6.80875 5.29125 5.29125 6.80875 4.175 8.725C3.05875 10.6413 2.5 12.7338 2.5 15C2.5 17.2663 3.0575 19.3588 4.175 21.275C5.2925 23.1925 6.80875 24.7088 8.72625 25.825C10.6425 26.9413 12.7338 27.5 15 27.5C17.2663 27.5 19.3575 26.9413 21.275 25.825C23.1913 24.7088 24.7088 23.1925 25.8263 21.275C26.9425 19.3588 27.5 17.2663 27.5 15C27.5 12.7338 26.9425 10.6413 25.825 8.725ZM15 4.575C17.5 4.575 19.715 5.375 21.65 6.97375C20.5 8.44125 18.7925 9.64875 16.525 10.5988C15.2725 8.3325 13.915 6.44 12.4488 4.92375C13.3013 4.69125 14.1488 4.575 15 4.575ZM6.8875 8.5C7.83 7.31625 8.9575 6.3925 10.2763 5.725C11.7913 7.22625 13.1825 9.1 14.4513 11.35C11.9513 12.1 9.30875 12.475 6.525 12.475C5.80875 12.475 5.2675 12.4588 4.9 12.425C5.28375 10.9913 5.94625 9.68375 6.8875 8.5ZM4.575 15C4.575 14.9325 4.57875 14.85 4.5875 14.75C4.59625 14.65 4.6 14.5675 4.6 14.5C4.9175 14.5175 5.40125 14.525 6.05125 14.525C9.38375 14.525 12.4838 14.0663 15.35 13.15C15.5838 13.6163 15.8263 14.1413 16.075 14.725C14.425 15.0913 12.7325 15.9825 10.9988 17.4C9.265 18.8175 8 20.3088 7.2 21.875C5.45 19.8913 4.575 17.6 4.575 15ZM15 25.425C12.6325 25.425 10.5075 24.6913 8.62375 23.2263C9.375 21.7425 10.5288 20.3238 12.0875 18.975C13.645 17.625 15.1913 16.7838 16.725 16.45C17.69 19.1163 18.3413 21.8738 18.675 24.725C17.4575 25.1913 16.2325 25.425 15 25.425ZM23.85 20.475C23.0175 21.8075 21.9425 22.9 20.625 23.7513C20.325 21.1513 19.75 18.6175 18.9013 16.15C20.0663 16.0675 21.1075 16.025 22.0263 16.025C23.025 16.025 24.1338 16.0675 25.35 16.15C25.1825 17.7 24.6825 19.1413 23.85 20.475ZM22.3 14.225C20.85 14.225 19.5088 14.2838 18.275 14.4C17.9575 13.5838 17.675 12.9088 17.425 12.375C20.0075 11.2425 21.84 9.8675 22.9238 8.25C24.4238 10.0175 25.2413 12.0338 25.3738 14.3C24.3588 14.25 23.3338 14.225 22.3 14.225Z" fill="#EBEBEB"/>
</svg>
