<svg width="64" height="64" viewBox="0 0 64 64" fill="none" xmlns="http://www.w3.org/2000/svg">
<path d="M55.0933 18.614C52.7093 14.526 49.4746 11.2887 45.3839 8.90732C41.2959 6.52598 36.8346 5.33398 31.9999 5.33398C27.1653 5.33398 22.7039 6.52598 18.6133 8.90732C14.5253 11.2887 11.2879 14.526 8.90659 18.614C6.52525 22.702 5.33325 27.166 5.33325 32.0007C5.33325 36.8353 6.52259 41.2993 8.90659 45.3873C11.2906 49.478 14.5253 52.7127 18.6159 55.094C22.7039 57.4753 27.1653 58.6673 31.9999 58.6673C36.8346 58.6673 41.2959 57.4753 45.3866 55.094C49.4746 52.7127 52.7119 49.478 55.0959 45.3873C57.4773 41.2993 58.6666 36.8353 58.6666 32.0007C58.6666 27.166 57.4773 22.702 55.0933 18.614ZM31.9999 9.76065C37.3333 9.76065 42.0586 11.4673 46.1866 14.878C43.7333 18.0087 40.0906 20.5847 35.2533 22.6113C32.5813 17.7767 29.6853 13.7393 26.5573 10.5047C28.3759 10.0087 30.1839 9.76065 31.9999 9.76065ZM14.6933 18.134C16.7039 15.6087 19.1093 13.638 21.9226 12.214C25.1546 15.4167 28.1226 19.414 30.8293 24.214C25.4959 25.814 19.8586 26.614 13.9199 26.614C12.3919 26.614 11.2373 26.5793 10.4533 26.5073C11.2719 23.4487 12.6853 20.6593 14.6933 18.134ZM9.75992 32.0007C9.75992 31.8567 9.76792 31.6807 9.78659 31.4673C9.80525 31.254 9.81325 31.078 9.81325 30.934C10.4906 30.9713 11.5226 30.9873 12.9093 30.9873C20.0186 30.9873 26.6319 30.0087 32.7466 28.054C33.2453 29.0487 33.7626 30.1687 34.2933 31.414C30.7733 32.1953 27.1626 34.0967 23.4639 37.1207C19.7653 40.1447 17.0666 43.326 15.3599 46.6673C11.6266 42.4353 9.75992 37.5473 9.75992 32.0007ZM31.9999 54.2407C26.9493 54.2407 22.4159 52.6753 18.3973 49.55C19.9999 46.3847 22.4613 43.358 25.7866 40.4807C29.1093 37.6007 32.4079 35.806 35.6799 35.094C37.7386 40.782 39.1279 46.6647 39.8399 52.7473C37.2426 53.742 34.6293 54.2407 31.9999 54.2407ZM50.8799 43.6806C49.1039 46.5233 46.8106 48.854 43.9999 50.67C43.3599 45.1233 42.1333 39.718 40.3226 34.454C42.8079 34.278 45.0293 34.1873 46.9893 34.1873C49.1199 34.1873 51.4853 34.278 54.0799 34.454C53.7226 37.7607 52.6559 40.8353 50.8799 43.6806ZM47.5733 30.3473C44.4799 30.3473 41.6186 30.4727 38.9866 30.7207C38.3093 28.9793 37.7066 27.5393 37.1733 26.4007C42.6826 23.9847 46.5919 21.0513 48.9039 17.6007C52.1039 21.3713 53.8479 25.6727 54.1306 30.5073C51.9653 30.4007 49.7786 30.3473 47.5733 30.3473Z" fill="#EBEBEB"/>
</svg>
