<svg width="73" height="73" viewBox="0 0 73 73" fill="none" xmlns="http://www.w3.org/2000/svg">
<path d="M61.6941 31.4996H36.3661V41.9964H50.9418C49.5852 48.6668 43.9064 52.4993 36.3661 52.4993C27.4754 52.4993 20.3092 45.3331 20.3092 36.4393C20.3092 27.5485 27.4754 20.3823 36.3661 20.3823C40.1956 20.3823 43.657 21.7419 46.3732 23.9654L54.2816 16.0601C49.4636 11.8596 43.2859 9.26807 36.3661 9.26807C21.2977 9.26807 9.19189 21.3709 9.19189 36.4423C9.19189 51.5138 21.2947 63.6166 36.3661 63.6166C49.9533 63.6166 62.3085 53.7342 62.3085 36.4423C62.3085 34.8363 62.0621 33.1056 61.6941 31.4996Z" fill="#EBEBEB"/>
</svg>
