<svg width="30" height="30" viewBox="0 0 30 30" fill="none" xmlns="http://www.w3.org/2000/svg">
<path d="M14.9987 9.2207C11.8062 9.2207 9.21997 11.8082 9.21997 14.9995C9.21997 18.192 11.8062 20.7795 14.9987 20.7795C18.1887 20.7795 20.7775 18.192 20.7775 14.9995C20.7775 11.8082 18.1887 9.2207 14.9987 9.2207ZM14.9987 18.7545C12.925 18.7545 11.2437 17.0732 11.2437 15.0007C11.2437 12.927 12.925 11.247 14.9987 11.247C17.0725 11.247 18.7512 12.927 18.7512 15.0007C18.7512 17.0732 17.0725 18.7545 14.9987 18.7545Z" fill="#EBEBEB"/>
<path d="M21.0074 10.3552C21.7516 10.3552 22.3549 9.75186 22.3549 9.00766C22.3549 8.26345 21.7516 7.66016 21.0074 7.66016C20.2632 7.66016 19.6599 8.26345 19.6599 9.00766C19.6599 9.75186 20.2632 10.3552 21.0074 10.3552Z" fill="#EBEBEB"/>
<path d="M25.6662 7.63836C25.0799 6.12711 23.8862 4.93211 22.3749 4.34836C21.5012 4.01961 20.5774 3.84336 19.6424 3.82336C18.4387 3.77086 18.0574 3.75586 15.0049 3.75586C11.9524 3.75586 11.5612 3.75586 10.3674 3.82336C9.43494 3.84211 8.51119 4.01836 7.63744 4.34836C6.12494 4.93211 4.93119 6.12711 4.34619 7.63836C4.01744 8.51336 3.84119 9.43586 3.82244 10.3709C3.76869 11.5734 3.75244 11.9546 3.75244 15.0084C3.75244 18.0609 3.75244 18.4496 3.82244 19.6459C3.84119 20.5809 4.01744 21.5034 4.34619 22.3796C4.93244 23.8896 6.12619 25.0846 7.63869 25.6696C8.50869 26.0096 9.43244 26.2021 10.3699 26.2321C11.5737 26.2846 11.9549 26.3009 15.0074 26.3009C18.0599 26.3009 18.4512 26.3009 19.6449 26.2321C20.5787 26.2134 21.5024 26.0359 22.3774 25.7084C23.8887 25.1221 25.0824 23.9284 25.6687 22.4171C25.9974 21.5421 26.1737 20.6196 26.1924 19.6846C26.2462 18.4821 26.2624 18.1009 26.2624 15.0471C26.2624 11.9934 26.2624 11.6059 26.1924 10.4096C26.1762 9.46211 26.0012 8.52336 25.6662 7.63836ZM24.1437 19.5534C24.1349 20.2734 24.0049 20.9871 23.7549 21.6634C23.3737 22.6471 22.5974 23.4246 21.6149 23.8021C20.9462 24.0509 20.2412 24.1809 19.5274 24.1909C18.3399 24.2459 18.0049 24.2596 14.9599 24.2596C11.9124 24.2596 11.6012 24.2596 10.3912 24.1909C9.67994 24.1821 8.97244 24.0509 8.30494 23.8021C7.31869 23.4259 6.53744 22.6484 6.15619 21.6634C5.91119 20.9959 5.77869 20.2896 5.76744 19.5771C5.71369 18.3896 5.70119 18.0546 5.70119 15.0096C5.70119 11.9634 5.70119 11.6521 5.76744 10.4409C5.77619 9.72086 5.90619 9.00836 6.15619 8.33211C6.53744 7.34586 7.31869 6.56961 8.30494 6.19211C8.97244 5.94461 9.67994 5.81336 10.3912 5.80336C11.5799 5.74961 11.9137 5.73461 14.9599 5.73461C18.0062 5.73461 18.3187 5.73461 19.5274 5.80336C20.2412 5.81211 20.9462 5.94336 21.6149 6.19211C22.5974 6.57086 23.3737 7.34836 23.7549 8.33211C23.9999 8.99961 24.1324 9.70586 24.1437 10.4184C24.1974 11.6071 24.2112 11.9409 24.2112 14.9871C24.2112 18.0321 24.2112 18.3596 24.1574 19.5546H24.1437V19.5534Z" fill="#EBEBEB"/>
</svg>
