<svg width="81" height="81" viewBox="0 0 81 81" fill="none" xmlns="http://www.w3.org/2000/svg">
<path d="M40.4967 24.8975C31.8769 24.8975 24.894 31.8837 24.894 40.5001C24.894 49.1198 31.8769 56.1061 40.4967 56.1061C49.1097 56.1061 56.0993 49.1198 56.0993 40.5001C56.0993 31.8837 49.1097 24.8975 40.4967 24.8975ZM40.4967 50.6386C34.8975 50.6386 30.3582 46.0992 30.3582 40.5035C30.3582 34.9043 34.8975 30.3683 40.4967 30.3683C46.0958 30.3683 50.6284 34.9043 50.6284 40.5035C50.6284 46.0992 46.0958 50.6386 40.4967 50.6386Z" fill="#EBEBEB"/>
<path d="M56.7203 27.9616C58.7296 27.9616 60.3585 26.3327 60.3585 24.3233C60.3585 22.314 58.7296 20.6851 56.7203 20.6851C54.7109 20.6851 53.082 22.314 53.082 24.3233C53.082 26.3327 54.7109 27.9616 56.7203 27.9616Z" fill="#EBEBEB"/>
<path d="M69.299 20.6244C67.7161 16.544 64.493 13.3175 60.4126 11.7414C58.0535 10.8537 55.5593 10.3779 53.0348 10.3239C49.7847 10.1821 48.7553 10.1416 40.5136 10.1416C32.2718 10.1416 31.2155 10.1416 27.9923 10.3239C25.4746 10.3745 22.9805 10.8504 20.6213 11.7414C16.5376 13.3175 13.3145 16.544 11.735 20.6244C10.8473 22.9869 10.3715 25.4776 10.3208 28.0021C10.1757 31.2488 10.1318 32.2782 10.1318 40.5233C10.1318 48.7651 10.1318 49.8147 10.3208 53.0446C10.3715 55.5691 10.8473 58.0598 11.735 60.4257C13.3178 64.5027 16.541 67.7292 20.6247 69.3087C22.9737 70.2267 25.4678 70.7465 27.9991 70.8275C31.2492 70.9692 32.2786 71.0131 40.5203 71.0131C48.7621 71.0131 49.8185 71.0131 53.0416 70.8275C55.5627 70.7768 58.0568 70.2976 60.4193 69.4133C64.4997 67.8305 67.7228 64.6073 69.3057 60.527C70.1933 58.1645 70.6692 55.6737 70.7198 53.1492C70.865 49.9025 70.9088 48.8731 70.9088 40.628C70.9088 32.3829 70.9088 31.3366 70.7198 28.1067C70.676 25.5485 70.2035 23.0139 69.299 20.6244ZM65.1882 52.7948C65.1646 54.7388 64.8136 56.666 64.1386 58.4918C63.1092 61.148 61.0133 63.2472 58.3606 64.2665C56.555 64.9381 54.6515 65.2891 52.7243 65.3161C49.5181 65.4646 48.6136 65.5017 40.3921 65.5017C32.1638 65.5017 31.3235 65.5017 28.0565 65.3161C26.1361 65.2925 24.2258 64.9381 22.4236 64.2665C19.7607 63.2506 17.6513 61.1513 16.622 58.4918C15.9605 56.6896 15.6027 54.7827 15.5723 52.859C15.4272 49.6527 15.3935 48.7482 15.3935 40.5267C15.3935 32.3019 15.3935 31.4615 15.5723 28.1911C15.596 26.2471 15.947 24.3233 16.622 22.4975C17.6513 19.8346 19.7607 17.7387 22.4236 16.7195C24.2258 16.0512 26.1361 15.6969 28.0565 15.6699C31.2661 15.5247 32.1672 15.4842 40.3921 15.4842C48.617 15.4842 49.4607 15.4842 52.7243 15.6699C54.6515 15.6935 56.555 16.0479 58.3606 16.7195C61.0133 17.7421 63.1092 19.8414 64.1386 22.4975C64.8001 24.2997 65.1578 26.2066 65.1882 28.1304C65.3333 31.34 65.3705 32.2411 65.3705 40.466C65.3705 48.6875 65.3705 49.5717 65.2253 52.7982H65.1882V52.7948Z" fill="#EBEBEB"/>
</svg>
