<svg width="76" height="76" viewBox="0 0 76 76" fill="none" xmlns="http://www.w3.org/2000/svg">
<path d="M63.3333 9.5H12.6667C10.9155 9.5 9.5 10.9187 9.5 12.6667V63.3333C9.5 65.0813 10.9155 66.5 12.6667 66.5H63.3333C65.0845 66.5 66.5 65.0813 66.5 63.3333V12.6667C66.5 10.9187 65.0845 9.5 63.3333 9.5ZM26.4068 58.0672H17.9455V30.8655H26.4068V58.0672ZM22.1762 27.151C19.4655 27.151 17.2742 24.9533 17.2742 22.249C17.2742 19.5447 19.4623 17.347 22.1762 17.347C24.8805 17.347 27.0782 19.5415 27.0782 22.249C27.0782 24.9565 24.8805 27.151 22.1762 27.151ZM58.0703 58.0672H49.6185V44.84C49.6185 41.686 49.5615 37.6295 45.2232 37.6295C40.8215 37.6295 40.1533 41.0685 40.1533 44.6183V58.0703H31.7078V30.8687H39.8145V34.5863H39.9317C41.0558 32.4488 43.8172 30.1942 47.9243 30.1942C56.487 30.1942 58.0672 35.8245 58.0672 43.1522V58.0672H58.0703Z" fill="#EBEBEB"/>
</svg>
