<svg width="30" height="30" viewBox="0 0 30 30" fill="none" xmlns="http://www.w3.org/2000/svg">
<path d="M25 3.75H5C4.30875 3.75 3.75 4.31 3.75 5V25C3.75 25.69 4.30875 26.25 5 26.25H25C25.6912 26.25 26.25 25.69 26.25 25V5C26.25 4.31 25.6912 3.75 25 3.75ZM10.4237 22.9212H7.08375V12.1837H10.4237V22.9212ZM8.75375 10.7175C7.68375 10.7175 6.81875 9.85 6.81875 8.7825C6.81875 7.715 7.6825 6.8475 8.75375 6.8475C9.82125 6.8475 10.6887 7.71375 10.6887 8.7825C10.6887 9.85125 9.82125 10.7175 8.75375 10.7175ZM22.9225 22.9212H19.5862V17.7C19.5862 16.455 19.5638 14.8538 17.8513 14.8538C16.1138 14.8538 15.85 16.2113 15.85 17.6125V22.9225H12.5162V12.185H15.7162V13.6525H15.7625C16.2062 12.8087 17.2962 11.9187 18.9175 11.9187C22.2975 11.9187 22.9212 14.1412 22.9212 17.0337V22.9212H22.9225Z" fill="#EBEBEB"/>
</svg>
