<svg width="76" height="76" viewBox="0 0 76 76" fill="none" xmlns="http://www.w3.org/2000/svg">
<path d="M63.3335 12.666H12.6668C9.174 12.666 6.3335 15.5065 6.3335 18.9993V56.9993C6.3335 60.4922 9.174 63.3327 12.6668 63.3327H63.3335C66.8263 63.3327 69.6668 60.4922 69.6668 56.9993V18.9993C69.6668 15.5065 66.8263 12.666 63.3335 12.666ZM63.3335 18.9993V20.6175L38.0002 40.3237L12.6668 20.6207V18.9993H63.3335ZM12.6668 56.9993V28.6387L36.0558 46.8312C36.6258 47.2777 37.313 47.4993 38.0002 47.4993C38.6873 47.4993 39.3745 47.2777 39.9445 46.8312L63.3335 28.6387L63.3398 56.9993H12.6668Z" fill="#EBEBEB"/>
</svg>
