<svg width="25" height="25" viewBox="0 0 25 25" fill="none" xmlns="http://www.w3.org/2000/svg">
<path d="M23.6111 0H1.38889C0.620833 0 0 0.622222 0 1.38889V23.6111C0 24.3778 0.620833 25 1.38889 25H23.6111C24.3792 25 25 24.3778 25 23.6111V1.38889C25 0.622222 24.3792 0 23.6111 0ZM7.41528 21.3014H3.70417V9.37083H7.41528V21.3014ZM5.55972 7.74167C4.37083 7.74167 3.40972 6.77778 3.40972 5.59167C3.40972 4.40556 4.36944 3.44167 5.55972 3.44167C6.74583 3.44167 7.70972 4.40417 7.70972 5.59167C7.70972 6.77917 6.74583 7.74167 5.55972 7.74167ZM21.3028 21.3014H17.5958V15.5C17.5958 14.1167 17.5708 12.3375 15.6681 12.3375C13.7375 12.3375 13.4444 13.8458 13.4444 15.4028V21.3028H9.74028V9.37222H13.2958V11.0028H13.3472C13.8403 10.0653 15.0514 9.07639 16.8528 9.07639C20.6083 9.07639 21.3014 11.5458 21.3014 14.7597V21.3014H21.3028Z" fill="#F0F0F0"/>
</svg>
